HIERARCHY
ROOT Hips
{
	OFFSET 0.000000 0.000000 0.000000
	CHANNELS 6 Xposition Yposition Zposition Xrotation Yrotation Zrotation
	JOINT LeftUpLeg_virtual
	{
		OFFSET 0.000000 0.000000 0.000000
		CHANNELS 3 Xrotation Yrotation Zrotation
		JOINT LeftUpLeg
		{
			OFFSET 10.205400 -3.823500 0.155100
			CHANNELS 3 Xrotation Yrotation Zrotation
			JOINT LeftLeg
			{
				OFFSET 0.708757 -12.982077 0.567790
				CHANNELS 3 Xrotation Yrotation Zrotation
				JOINT LeftFoot
				{
					OFFSET -0.708756 -10.717838 -2.184338
					CHANNELS 3 Xrotation Yrotation Zrotation
					JOINT LeftToeBase
					{
						OFFSET 0.108149 -7.191104 7.560241
						CHANNELS 3 Xrotation Yrotation Zrotation
						JOINT LeftToe_End
						{
							OFFSET 0.070230 0.081724 4.490308
							CHANNELS 3 Xrotation Yrotation Zrotation
							End Site
							{
								OFFSET 0 0 0
							}
						}
					}
				}
			}
		}
	}
	JOINT RightUpLeg_virtual
	{
		OFFSET 0.000000 0.000000 0.000000
		CHANNELS 3 Xrotation Yrotation Zrotation
		JOINT RightUpLeg
		{
			OFFSET -10.205400 -3.823500 0.005500
			CHANNELS 3 Xrotation Yrotation Zrotation
			JOINT RightLeg
			{
				OFFSET -0.708756 -12.982134 0.610632
				CHANNELS 3 Xrotation Yrotation Zrotation
				JOINT RightFoot
				{
					OFFSET 0.708754 -10.717769 -1.945823
					CHANNELS 3 Xrotation Yrotation Zrotation
					JOINT RightToeBase
					{
						OFFSET -0.108140 -7.191069 7.372968
						CHANNELS 3 Xrotation Yrotation Zrotation
						JOINT RightToe_End
						{
							OFFSET -0.070227 0.081735 4.479403
							CHANNELS 3 Xrotation Yrotation Zrotation
							End Site
							{
								OFFSET 0 0 0
							}
						}
					}
				}
			}
		}
	}
	JOINT Spine_virtual
	{
		OFFSET 0.000000 0.000000 0.000000
		CHANNELS 3 Xrotation Yrotation Zrotation
		JOINT Spine
		{
			OFFSET 0.000000 6.876099 0.125700
			CHANNELS 3 Xrotation Yrotation Zrotation
			JOINT Spine1
			{
				OFFSET 0.000000 5.730043 0.104720
				CHANNELS 3 Xrotation Yrotation Zrotation
				JOINT Spine1_split
				{
					OFFSET 0.000000 5.730043 0.104720
					CHANNELS 3 Xrotation Yrotation Zrotation
					JOINT Spine2
					{
						OFFSET 0.000000 5.730043 0.104720
						CHANNELS 3 Xrotation Yrotation Zrotation
						JOINT Neck_virtual
						{
							OFFSET 0.000000 0.000000 0.000000
							CHANNELS 3 Xrotation Yrotation Zrotation
							JOINT Neck
							{
								OFFSET 0.000000 10.314075 0.188496
								CHANNELS 3 Xrotation Yrotation Zrotation
								JOINT Head
								{
									OFFSET 0.000000 7.643700 -2.377400
									CHANNELS 3 Xrotation Yrotation Zrotation
									JOINT HeadTop_End
									{
										OFFSET 0.000000 43.788605 -13.619600
										CHANNELS 3 Xrotation Yrotation Zrotation
										End Site
										{
											OFFSET 0 0 0
										}
									}
								}
							}
						}
						JOINT LeftShoulder_virtual
						{
							OFFSET 0.000000 0.000000 0.000000
							CHANNELS 3 Xrotation Yrotation Zrotation
							JOINT LeftShoulder
							{
								OFFSET 2.196100 4.412489 0.087492
								CHANNELS 3 Xrotation Yrotation Zrotation
								JOINT LeftShoulder_split
								{
									OFFSET 2.196100 4.412489 0.087492
									CHANNELS 3 Xrotation Yrotation Zrotation
									JOINT LeftArm
									{
										OFFSET 8.771219 -2.981674 -0.026999
										CHANNELS 3 Xrotation Yrotation Zrotation
										JOINT LeftForeArm
										{
											OFFSET 8.512804 0.000000 -0.000000
											CHANNELS 3 Xrotation Yrotation Zrotation
											JOINT LeftHand
											{
												OFFSET 18.484802 0.000000 -0.000000
												CHANNELS 3 Xrotation Yrotation Zrotation
												End Site
												{
													OFFSET 0 0 0
												}
											}
										}
									}
								}
							}
						}
						JOINT RightShoulder_virtual
						{
							OFFSET 0.000000 0.000000 0.000000
							CHANNELS 3 Xrotation Yrotation Zrotation
							JOINT RightShoulder
							{
								OFFSET -2.196100 4.412496 0.070690
								CHANNELS 3 Xrotation Yrotation Zrotation
								JOINT RightShoulder_split
								{
									OFFSET -2.196100 4.412496 0.070690
									CHANNELS 3 Xrotation Yrotation Zrotation
									JOINT RightArm
									{
										OFFSET -8.771282 -2.981682 -0.094208
										CHANNELS 3 Xrotation Yrotation Zrotation
										JOINT RightForeArm
										{
											OFFSET -8.494598 0.000000 0.000000
											CHANNELS 3 Xrotation Yrotation Zrotation
											JOINT RightHand
											{
												OFFSET -18.483803 0.000000 0.000001
												CHANNELS 3 Xrotation Yrotation Zrotation
												End Site
												{
													OFFSET 0 0 0
												}
											}
										}
									}
								}
							}
						}
					}
				}
			}
		}
	}
}
MOTION
Frames: 4
Frame Time: 0.03333333
-4.090602 52.778736 -2.172981 0.000000 0.000000 0.000000 9.592441 -12.576431 -1.962879 -144.568399 -42.879347 30.556928 115.479128 -27.492348 -6.400464 39.662225 -24.517417 -12.617009 -0.017758 0.000003 -0.000005 0.000000 0.000000 0.000000 9.592441 -12.576431 -1.962879 -41.270609 26.155158 -103.819497 105.342588 66.751944 30.606768 -10.062166 13.995607 34.871835 -0.009710 -0.000011 0.000005 0.000000 0.000000 0.000000 9.592441 -12.576431 -1.962879 33.165015 7.152384 2.493566 7.005183 1.340330 1.044126 0.000000 0.000000 0.000000 0.000000 0.000000 0.000000 7.005133 1.323487 1.067152 7.594035 3.568081 1.767956 -5.811998 29.196053 -21.913188 0.000000 0.000000 0.000000 7.005133 1.323487 1.067152 0.375801 -3.663684 3.526003 0.000000 0.000000 0.000000 -38.687820 19.602001 21.846153 0.000016 -0.833154 0.000009 0.000000 0.000000 0.000000 7.005133 1.323487 1.067152 -3.703295 -7.648381 -32.005935 0.000000 0.000000 0.000000 -45.797023 15.445740 -5.645442 -0.000003 11.835340 0.000005 0.000000 0.000000 0.000000 
-4.193818 51.832859 -1.842058 0.000000 0.000000 0.000000 10.343358 -11.507806 -0.532624 -147.713701 -36.105630 30.659258 116.183731 -21.841512 -8.327681 44.549595 -28.097426 -2.319415 -0.018063 -0.000006 -0.000004 0.000000 0.000000 0.000000 10.343358 -11.507806 -0.532624 -35.680813 19.122873 -102.016388 97.482912 67.536077 37.589458 -16.627604 11.879482 31.790511 -0.008796 -0.000004 -0.000001 0.000000 0.000000 0.000000 10.343358 -11.507806 -0.532624 32.866580 6.447961 1.205868 6.928099 1.411405 0.809341 0.000000 0.000000 0.000000 0.000000 0.000000 0.000000 6.927395 1.400736 0.834281 8.137130 3.359823 2.019690 -4.939795 28.238411 -21.457487 0.000000 0.000000 0.000000 6.927395 1.400736 0.834281 0.260222 -3.373978 3.577389 0.000000 0.000000 0.000000 -40.196049 20.677967 26.508051 -0.000004 -2.492638 0.000009 0.000000 0.000000 0.000000 6.927395 1.400736 0.834281 -2.438249 -4.287068 -32.305565 0.000000 0.000000 0.000000 -40.704058 7.760220 -13.687636 0.000003 15.033129 -0.000014 0.000000 0.000000 0.000000 
-4.172977 50.102547 -1.701777 0.000000 0.000000 0.000000 10.010593 -11.473629 -0.288405 -146.581296 -31.468280 30.000404 117.761737 -18.770425 -8.727599 46.043442 -25.064714 3.301555 -0.017419 -0.000004 -0.000000 0.000000 0.000000 0.000000 10.010593 -11.473629 -0.288405 -33.015437 16.168484 -93.205827 99.035400 66.078050 35.420275 -26.236457 9.412668 28.056663 -0.007127 -0.000019 0.000004 0.000000 0.000000 0.000000 10.010593 -11.473629 -0.288405 31.073652 6.283599 0.531062 6.538973 1.568812 0.665330 0.000000 0.000000 0.000000 0.000000 0.000000 0.000000 6.537224 1.564635 0.691661 7.826003 3.324095 1.952254 -4.157724 27.663965 -21.379897 0.000000 0.000000 0.000000 6.537224 1.564635 0.691661 0.039217 -2.385791 4.168971 0.000000 0.000000 0.000000 -38.968333 20.585630 29.044396 0.000003 -3.374188 -0.000004 0.000000 0.000000 0.000000 6.537224 1.564635 0.691661 -1.195173 -0.396584 -31.763696 0.000000 0.000000 0.000000 -37.135158 -0.211841 -19.628955 0.000008 19.145500 -0.000011 0.000000 0.000000 0.000000 
-4.002360 47.783661 -1.925348 0.000000 0.000000 0.000000 8.602156 -11.521896 -0.859514 -143.689504 -27.255943 27.578740 119.664955 -16.302465 -6.845505 42.042034 -22.106641 3.800615 -0.012159 0.000008 -0.000001 0.000000 0.000000 0.000000 8.602156 -11.521896 -0.859514 -30.717512 14.106656 -81.712135 104.699813 64.052626 28.954651 -38.062442 5.679503 23.312802 -0.003648 -0.000009 -0.000007 0.000000 0.000000 0.000000 8.602156 -11.521896 -0.859514 28.522487 6.810815 0.540462 5.995022 1.728299 0.680312 0.000000 0.000000 0.000000 0.000000 0.000000 0.000000 5.991700 1.728370 0.706514 7.528497 3.405293 1.903800 -4.302183 27.824753 -21.110880 0.000000 0.000000 0.000000 5.991700 1.728370 0.706514 -0.058445 -2.072651 4.852677 0.000000 0.000000 0.000000 -37.181870 21.291341 30.847494 0.000003 -3.951672 -0.000002 0.000000 0.000000 0.000000 5.991700 1.728370 0.706514 -0.388914 2.653078 -30.259265 0.000000 0.000000 0.000000 -35.260097 -5.616383 -21.941761 0.000004 21.810560 -0.000010 0.000000 0.000000 0.000000 
